<svg id="visual" viewBox="0 0 900 600" width="900" height="600" xmlns="http://www.w3.org/2000/svg" xmlns:xlink="http://www.w3.org/1999/xlink" version="1.1"><rect x="0" y="0" width="900" height="600" fill="#001220"></rect><defs><linearGradient id="grad1_0" x1="33.3%" y1="0%" x2="100%" y2="100%"><stop offset="20%" stop-color="#fbae3c" stop-opacity="1"></stop><stop offset="80%" stop-color="#fbae3c" stop-opacity="1"></stop></linearGradient></defs><defs><linearGradient id="grad1_1" x1="33.3%" y1="0%" x2="100%" y2="100%"><stop offset="20%" stop-color="#fbae3c" stop-opacity="1"></stop><stop offset="80%" stop-color="#96446e" stop-opacity="1"></stop></linearGradient></defs><defs><linearGradient id="grad1_2" x1="33.3%" y1="0%" x2="100%" y2="100%"><stop offset="20%" stop-color="#001220" stop-opacity="1"></stop><stop offset="80%" stop-color="#96446e" stop-opacity="1"></stop></linearGradient></defs><defs><linearGradient id="grad2_0" x1="0%" y1="0%" x2="66.7%" y2="100%"><stop offset="20%" stop-color="#fbae3c" stop-opacity="1"></stop><stop offset="80%" stop-color="#fbae3c" stop-opacity="1"></stop></linearGradient></defs><defs><linearGradient id="grad2_1" x1="0%" y1="0%" x2="66.7%" y2="100%"><stop offset="20%" stop-color="#96446e" stop-opacity="1"></stop><stop offset="80%" stop-color="#fbae3c" stop-opacity="1"></stop></linearGradient></defs><defs><linearGradient id="grad2_2" x1="0%" y1="0%" x2="66.7%" y2="100%"><stop offset="20%" stop-color="#96446e" stop-opacity="1"></stop><stop offset="80%" stop-color="#001220" stop-opacity="1"></stop></linearGradient></defs><g transform="translate(900, 0)"><path d="M0 405.6C-41.9 402.4 -83.8 399.1 -125.3 385.8C-166.9 372.4 -208 349 -226.9 312.3C-245.8 275.6 -242.5 225.7 -267.8 194.6C-293.1 163.4 -347 151.1 -374.7 121.8C-402.5 92.5 -404 46.2 -405.6 0L0 0Z" fill="#3d3056"></path><path d="M0 270.4C-27.9 268.2 -55.9 266.1 -83.6 257.2C-111.2 248.3 -138.7 232.6 -151.3 208.2C-163.9 183.7 -161.7 150.5 -178.5 129.7C-195.4 108.9 -231.3 100.7 -249.8 81.2C-268.3 61.6 -269.4 30.8 -270.4 0L0 0Z" fill="#e1685e"></path><path d="M0 135.2C-14 134.1 -27.9 133 -41.8 128.6C-55.6 124.1 -69.3 116.3 -75.6 104.1C-81.9 91.9 -80.8 75.2 -89.3 64.9C-97.7 54.5 -115.7 50.4 -124.9 40.6C-134.2 30.8 -134.7 15.4 -135.2 0L0 0Z" fill="#fbae3c"></path></g><g transform="translate(0, 600)"><path d="M0 -405.6C34.1 -372.4 68.3 -339.2 105.4 -324.3C142.5 -309.4 182.5 -312.7 218.1 -300.1C253.6 -287.6 284.6 -259 313.9 -228.1C343.2 -197.1 370.8 -163.8 385.8 -125.3C400.8 -86.9 403.2 -43.5 405.6 0L0 0Z" fill="#3d3056"></path><path d="M0 -270.4C22.8 -248.3 45.5 -226.2 70.2 -216.2C95 -206.3 121.7 -208.5 145.4 -200.1C169.1 -191.7 189.7 -172.7 209.3 -152C228.8 -131.4 247.2 -109.2 257.2 -83.6C267.2 -58 268.8 -29 270.4 0L0 0Z" fill="#e1685e"></path><path d="M0 -135.2C11.4 -124.1 22.8 -113.1 35.1 -108.1C47.5 -103.1 60.8 -104.2 72.7 -100C84.5 -95.9 94.9 -86.3 104.6 -76C114.4 -65.7 123.6 -54.6 128.6 -41.8C133.6 -29 134.4 -14.5 135.2 0L0 0Z" fill="#fbae3c"></path></g></svg>